<?xml version="1.0" encoding="utf-8"?>
<svg viewBox="696 181.889 145 144" xmlns="http://www.w3.org/2000/svg" xmlns:bx="https://boxy-svg.com">
  <rect x="696" y="181.889" width="145" height="144" style="fill: none;"/>
  <g transform="matrix(1, 0, 0, 1, -131, -117)">
    <path d="M 900 307.884 L 956.822 342.179 L 843.178 342.179 L 900 307.884 Z" style="stroke: rgb(0, 0, 0); stroke-linejoin: round; stroke-width: 7px;" bx:shape="triangle 843.178 307.884 113.644 34.295 0.5 0 1@417f1dab"/>
    <path d="M 838.5 338.117 C 879.09 338.117 919.68 338.117 961.5 338.117 C 961.5 369.797 961.5 401.477 961.5 434.117 C 920.91 434.117 880.32 434.117 838.5 434.117 C 838.5 428.369 838.5 422.621 838.5 416.867 C 838.5 390.908 838.5 364.835 838.5 338.117 Z" style="fill: rgb(3, 4, 3); --darkreader-inline-fill:#e6e4e0; stroke: rgb(0, 0, 0); stroke-linejoin: round; stroke-width: 6px;" data-darkreader-inline-fill=""/>
    <path d="M 860 344.494 C 862.747 345.552 864.597 346.746 867 348.494 C 867 348.824 867 349.154 867 349.494 C 861.39 349.494 855.78 349.494 850 349.494 C 850 369.954 850 390.414 850 411.494 C 854.29 411.494 858.58 411.494 863 411.494 C 863 410.504 863 409.514 863 408.494 C 860.03 408.494 857.06 408.494 854 408.494 C 854 390.344 854 372.194 854 353.494 C 859.61 353.494 865.22 353.494 871 353.494 C 871.124 356.248 871.124 356.248 871.25 359.057 C 871.743 364.714 872.467 368.031 876 372.494 C 881.625 376.822 888.034 378.762 895.055 378.689 C 896.718 378.68 896.718 378.68 898.414 378.67 C 899.556 378.653 900.698 378.636 901.875 378.619 C 903.04 378.61 904.206 378.601 905.406 378.592 C 908.271 378.568 911.136 378.535 914 378.494 C 913.453 381.869 912.945 383.577 911 386.494 C 910.667 389.536 910.667 389.536 911 392.494 C 912.885 394.81 912.885 394.81 916 394.744 C 919.115 394.81 919.115 394.81 921 392.494 C 921.425 388.76 921.16 386.808 919.438 383.432 C 918 380.494 918 380.494 917.938 377.869 C 919.443 374.505 921.96 373.501 925 371.494 C 928.917 366.091 928.641 359.95 929 353.494 C 934.61 353.494 940.22 353.494 946 353.494 C 946 371.644 946 389.794 946 408.494 C 920.26 408.494 894.52 408.494 868 408.494 C 868 409.484 868 410.474 868 411.494 C 895.06 411.494 922.12 411.494 950 411.494 C 950 391.034 950 370.574 950 349.494 C 944.39 349.494 938.78 349.494 933 349.494 C 938.388 345.184 939.458 344.338 945.938 344.244 C 947.529 344.205 947.529 344.205 949.152 344.166 C 952 344.494 952 344.494 953.657 345.598 C 955.664 348.432 955.36 350.724 955.341 354.169 C 955.341 354.853 955.341 355.537 955.342 356.242 C 955.34 358.456 955.317 360.668 955.293 362.881 C 955.289 364.248 955.286 365.615 955.284 366.982 C 955.268 372.049 955.226 377.115 955.188 382.182 C 955.126 393.505 955.064 404.828 955 416.494 C 918.7 416.494 882.4 416.494 845 416.494 C 844.938 405.171 844.876 393.848 844.813 382.182 C 844.785 378.607 844.758 375.032 844.73 371.348 C 844.716 366.982 844.716 366.982 844.714 364.938 C 844.709 363.51 844.699 362.083 844.683 360.656 C 844.661 358.493 844.658 356.331 844.66 354.169 C 844.653 352.95 844.646 351.73 844.639 350.474 C 845 347.494 845 347.494 846.354 345.604 C 850.186 343.02 855.615 343.957 860 344.494 Z" style="fill: rgb(107, 189, 122); --darkreader-inline-fill:#74c182;" data-darkreader-inline-fill=""/>
    <path d="M 903 313.494 C 905.008 314.478 907.009 315.477 909 316.494 C 911.752 316.747 911.752 316.747 914 316.494 C 914.321 317.385 914.321 317.385 914.648 318.294 C 916.486 321.285 918.505 322.125 921.629 323.693 C 922.746 324.263 923.863 324.832 925.014 325.418 C 926.185 326 927.356 326.582 928.563 327.182 C 930.877 328.351 933.191 329.521 935.504 330.693 C 936.533 331.207 937.563 331.721 938.623 332.251 C 941 333.494 941 333.494 942 334.494 C 942.563 336.744 942.563 336.744 942 339.494 C 939.35 341.495 936.913 342.938 934 344.494 C 932.767 345.202 931.536 345.912 930.305 346.623 C 928.975 347.373 927.644 348.122 926.313 348.869 C 925.671 349.24 925.03 349.61 924.369 349.991 C 921.63 351.486 919.473 352.484 916.328 352.553 C 913.074 351.073 911.594 349.012 909.438 346.182 C 905.52 341.066 905.52 341.066 901 336.494 C 900.34 336.494 899.68 336.494 899 336.494 C 900.546 340.112 902.758 342.576 905.438 345.432 C 908.432 348.623 910.87 351.665 913 355.494 C 911.681 356.349 910.344 357.177 909 357.994 C 908.258 358.458 907.515 358.922 906.75 359.4 C 901.61 361.445 898.032 361.321 892.989 359.269 C 889.485 357.555 886.049 355.736 882.625 353.869 C 881.446 353.244 880.267 352.62 879.086 351.998 C 860.728 342.222 860.728 342.222 858 339.494 C 857.959 337.828 857.957 336.16 858 334.494 C 864.347 331.016 870.702 327.553 877.062 324.098 C 879.727 322.643 882.383 321.171 885.035 319.693 C 886.523 318.877 888.012 318.06 889.5 317.244 C 890.174 316.862 890.848 316.48 891.543 316.086 C 895.534 313.92 898.462 312.947 903 313.494 Z" style="fill: rgb(100, 92, 100); --darkreader-inline-fill:#aba499;" data-darkreader-inline-fill=""/>
    <path d="M 860 344.494 C 862.747 345.552 864.597 346.746 867 348.494 C 867 348.824 867 349.154 867 349.494 C 861.39 349.494 855.78 349.494 850 349.494 C 850 369.954 850 390.414 850 411.494 C 858.577 410.967 858.577 410.967 867 409.494 C 867 410.154 867 410.814 867 411.494 C 894.39 411.494 921.78 411.494 950 411.494 C 950 391.034 950 370.574 950 349.494 C 944.39 349.494 938.78 349.494 933 349.494 C 938.388 345.184 939.458 344.338 945.938 344.244 C 947.529 344.205 947.529 344.205 949.152 344.166 C 952 344.494 952 344.494 953.657 345.598 C 955.664 348.432 955.36 350.724 955.341 354.169 C 955.341 354.853 955.341 355.537 955.342 356.242 C 955.34 358.456 955.317 360.668 955.293 362.881 C 955.289 364.248 955.286 365.615 955.284 366.982 C 955.268 372.049 955.226 377.115 955.188 382.182 C 955.126 393.505 955.064 404.828 955 416.494 C 918.7 416.494 882.4 416.494 845 416.494 C 844.938 405.171 844.876 393.848 844.813 382.182 C 844.785 378.607 844.758 375.032 844.73 371.348 C 844.716 366.982 844.716 366.982 844.714 364.938 C 844.709 363.51 844.699 362.083 844.683 360.656 C 844.661 358.493 844.658 356.331 844.66 354.169 C 844.653 352.95 844.646 351.73 844.639 350.474 C 845 347.494 845 347.494 846.354 345.604 C 850.186 343.02 855.615 343.957 860 344.494 Z" style="fill: rgb(205, 222, 226); --darkreader-inline-fill:#bcd3d8;" data-darkreader-inline-fill=""/>
    <path d="M 840 420.494 C 846.354 420.368 852.707 420.28 859.061 420.22 C 861.224 420.194 863.386 420.16 865.548 420.117 C 868.653 420.056 871.757 420.028 874.863 420.006 C 875.832 419.98 876.801 419.954 877.799 419.928 C 880.301 419.927 882.557 419.956 885 420.494 C 887.071 422.962 887.071 422.962 888 425.494 C 890.355 427.849 896.152 426.727 899.313 426.744 C 900.758 426.775 900.758 426.775 902.233 426.807 C 903.628 426.814 903.628 426.814 905.051 426.822 C 905.903 426.832 906.756 426.841 907.634 426.851 C 910.542 426.413 911.882 425.508 914 423.494 C 914.33 422.504 914.66 421.514 915 420.494 C 929.85 420.494 944.7 420.494 960 420.494 C 960 426.494 960 426.494 958.125 428.807 C 955.091 431.216 953.457 431.621 949.655 431.648 C 948.743 431.657 947.83 431.665 946.89 431.674 C 945.885 431.678 944.881 431.683 943.847 431.687 C 942.791 431.695 941.736 431.703 940.648 431.712 C 937.145 431.737 933.641 431.753 930.137 431.768 C 928.942 431.773 927.748 431.778 926.517 431.784 C 920.196 431.81 913.875 431.83 907.554 431.844 C 901.017 431.861 894.48 431.906 887.943 431.957 C 882.923 431.99 877.904 432.002 872.884 432.007 C 870.474 432.014 868.064 432.029 865.654 432.053 C 862.283 432.085 858.913 432.085 855.542 432.078 C 854.544 432.094 853.546 432.11 852.517 432.127 C 847.86 432.085 845.694 432.009 841.861 429.165 C 839.655 425.999 839.561 424.274 840 420.494 Z" style="fill: rgb(218, 229, 234); --darkreader-inline-fill:#c5d6de;" data-darkreader-inline-fill=""/>
    <path d="M 874 353.494 C 879.705 354.102 884.039 357.325 888.766 360.344 C 893.898 363.418 898.04 364.334 904 363.494 C 906.517 362.733 906.517 362.733 908.438 361.494 C 911.875 359.494 911.875 359.494 914 359.494 C 914 364.444 914 369.394 914 374.494 C 901.848 377.966 890.849 377.49 879.563 371.744 C 875.783 368.425 874.186 365.089 873.824 360.041 C 873.814 357.849 873.866 355.682 874 353.494 Z" style="fill: rgb(66, 61, 66); --darkreader-inline-fill:#c0bab2;" data-darkreader-inline-fill=""/>
    <path d="M 945.938 344.244 C 947.529 344.205 947.529 344.205 949.152 344.166 C 952 344.494 952 344.494 953.657 345.615 C 955.63 348.375 955.36 350.525 955.341 353.893 C 955.341 354.548 955.341 355.202 955.342 355.877 C 955.34 357.993 955.317 360.109 955.293 362.225 C 955.29 363.519 955.287 364.813 955.284 366.147 C 955.268 370.992 955.226 375.837 955.188 380.682 C 955.126 391.51 955.064 402.338 955 413.494 C 926.29 413.164 897.58 412.834 868 412.494 C 868 412.164 868 411.834 868 411.494 C 895.06 411.494 922.12 411.494 950 411.494 C 950 391.034 950 370.574 950 349.494 C 944.39 349.494 938.78 349.494 933 349.494 C 938.388 345.184 939.458 344.338 945.938 344.244 Z" style="fill: rgb(205, 215, 219); --darkreader-inline-fill:#cdc8c2;" data-darkreader-inline-fill=""/>
    <path d="M 887 361.494 C 888.114 362.154 889.228 362.814 890.375 363.494 C 895.247 365.909 899.643 366.4 905 365.494 C 907.587 364.389 909.642 363.066 912 361.494 C 912.66 361.494 913.32 361.494 914 361.494 C 914 365.784 914 370.074 914 374.494 C 907.892 376.021 900.675 376.998 894.699 374.553 C 891.192 372.157 888.715 369.428 887 365.494 C 887 364.174 887 362.854 887 361.494 Z" style="fill: rgb(100, 92, 100); --darkreader-inline-fill:#aba499;" data-darkreader-inline-fill=""/>
    <path d="M 840 420.494 C 854.85 420.494 869.7 420.494 885 420.494 C 884.67 421.154 884.34 421.814 884 422.494 C 866.675 421.999 866.675 421.999 849 421.494 C 850.207 427.863 850.207 427.863 852 429.494 C 855.166 429.62 858.31 429.68 861.477 429.699 C 862.472 429.709 863.467 429.719 864.492 429.729 C 867.798 429.761 871.104 429.786 874.41 429.811 C 876.696 429.831 878.981 429.852 881.267 429.874 C 887.295 429.929 893.324 429.978 899.352 430.026 C 905.498 430.077 911.645 430.132 917.791 430.188 C 929.861 430.295 941.93 430.397 954 430.494 C 954 430.824 954 431.154 954 431.494 C 939.875 431.611 925.749 431.699 911.624 431.753 C 905.065 431.779 898.506 431.815 891.947 431.871 C 885.619 431.926 879.291 431.956 872.962 431.969 C 870.547 431.978 868.131 431.996 865.715 432.023 C 862.334 432.059 858.955 432.064 855.574 432.062 C 854.072 432.089 854.072 432.089 852.54 432.116 C 847.983 432.082 845.678 431.958 841.839 429.334 C 840 426.494 840 426.494 840 420.494 Z" style="fill: rgb(183, 200, 204); --darkreader-inline-fill:#c1bcb4;" data-darkreader-inline-fill=""/>
    <path d="M 860 399.494 C 873.2 399.494 886.4 399.494 900 399.494 C 900 400.814 900 402.134 900 403.494 C 886.8 403.494 873.6 403.494 860 403.494 C 860 402.174 860 400.854 860 399.494 Z" style="fill: rgb(10, 17, 11); --darkreader-inline-fill:#dfddd9;" data-darkreader-inline-fill=""/>
    <path d="M 926 352.494 C 926.494 359.187 926.332 365.039 922 370.494 C 920.02 371.484 920.02 371.484 918 372.494 C 918 367.214 918 361.934 918 356.494 C 924.875 352.494 924.875 352.494 926 352.494 Z" style="fill: rgb(100, 92, 100); --darkreader-inline-fill:#aba499;" data-darkreader-inline-fill=""/>
    <path d="M 860 391.494 C 868.91 391.494 877.82 391.494 887 391.494 C 887 392.814 887 394.134 887 395.494 C 878.09 395.494 869.18 395.494 860 395.494 C 860 394.174 860 392.854 860 391.494 Z" style="fill: rgb(6, 11, 7); --darkreader-inline-fill:#e3e0dc;" data-darkreader-inline-fill=""/>
    <path d="M 865 410.494 C 865.99 410.824 866.98 411.154 868 411.494 C 870.57 411.614 873.114 411.679 875.684 411.699 C 876.856 411.714 876.856 411.714 878.05 411.729 C 880.631 411.761 883.212 411.786 885.793 411.811 C 887.582 411.831 889.372 411.852 891.161 411.874 C 895.871 411.929 900.581 411.978 905.291 412.026 C 910.097 412.077 914.903 412.132 919.709 412.188 C 929.139 412.295 938.57 412.397 948 412.494 C 948 412.824 948 413.154 948 413.494 C 919.95 413.494 891.9 413.494 863 413.494 C 863.66 412.504 864.32 411.514 865 410.494 Z" style="fill: rgb(223, 234, 239); --darkreader-inline-fill:#c7dae3;" data-darkreader-inline-fill=""/>
    <path d="M 889 420.494 C 896.26 420.494 903.52 420.494 911 420.494 C 910 423.494 910 423.494 908 424.494 C 905.116 424.566 902.258 424.587 899.375 424.557 C 898.573 424.552 897.772 424.548 896.945 424.543 C 894.964 424.531 892.982 424.513 891 424.494 C 890.34 423.174 889.68 421.854 889 420.494 Z" style="fill: rgb(155, 179, 183); --darkreader-inline-fill:#b2aba1;" data-darkreader-inline-fill=""/>
    <path d="M 926 352.494 C 926 355.794 926 359.094 926 362.494 C 925.67 362.494 925.34 362.494 925 362.494 C 925 360.184 925 357.874 925 355.494 C 924.216 355.989 923.433 356.484 922.625 356.994 C 920 358.494 920 358.494 918 358.494 C 918 357.834 918 357.174 918 356.494 C 924.875 352.494 924.875 352.494 926 352.494 Z" style="fill: rgb(66, 61, 66); --darkreader-inline-fill:#c0bab2;" data-darkreader-inline-fill=""/>
    <path d="M 916 384.494 C 917.563 386.307 917.563 386.307 919 388.494 C 918.67 389.484 918.34 390.474 918 391.494 C 916.68 391.494 915.36 391.494 914 391.494 C 914.875 385.619 914.875 385.619 916 384.494 Z" style="fill: rgb(222, 201, 63); --darkreader-inline-fill:#e0cd4d;" data-darkreader-inline-fill=""/>
    <path d="M 936 346.494 C 939.137 346.639 939.137 346.639 942.688 347.307 C 944.457 347.626 944.457 347.626 946.262 347.951 C 947.617 348.22 947.617 348.22 949 348.494 C 949 348.824 949 349.154 949 349.494 C 943.72 349.494 938.44 349.494 933 349.494 C 933.99 348.504 934.98 347.514 936 346.494 Z" style="fill: rgb(193, 203, 207); --darkreader-inline-fill:#c5c0b9;" data-darkreader-inline-fill=""/>
  </g>
</svg>